<?xml version="1.0" encoding="us-ascii" standalone="no"?><svg xmlns="http://www.w3.org/2000/svg" xmlns:xlink="http://www.w3.org/1999/xlink" contentStyleType="text/css" height="221px" preserveAspectRatio="none" style="width:1825px;height:221px;background:#FFFFFF;" version="1.1" viewBox="0 0 1825 221" width="1825px" zoomAndPan="magnify"><defs/><g><!--cluster One--><g id="cluster_One"><rect fill="none" height="208" rx="2.5" ry="2.5" style="stroke:#181818;stroke-width:1.0;" width="588" x="7" y="7"/><text fill="#000000" font-family="sans-serif" font-size="14" font-weight="bold" lengthAdjust="spacing" textLength="29" x="286.5" y="23.5332">One</text></g><!--cluster Two--><g id="cluster_Two"><rect fill="none" height="208" rx="2.5" ry="2.5" style="stroke:#181818;stroke-width:1.0;" width="588" x="619" y="7"/><text fill="#000000" font-family="sans-serif" font-size="14" font-weight="bold" lengthAdjust="spacing" textLength="28" x="899" y="23.5332">Two</text></g><!--cluster Three--><g id="cluster_Three"><rect fill="none" height="208" rx="2.5" ry="2.5" style="stroke:#181818;stroke-width:1.0;" width="588" x="1231" y="7"/><text fill="#000000" font-family="sans-serif" font-size="14" font-weight="bold" lengthAdjust="spacing" textLength="41" x="1504.5" y="23.5332">Three</text></g><!--class Class01--><g id="elem_Class01"><rect fill="#F1F1F1" height="48" id="Class01" rx="2.5" ry="2.5" style="stroke:#181818;stroke-width:0.5;" width="83" x="495.5" y="43"/><ellipse cx="510.5" cy="59" fill="#ADD1B2" rx="11" ry="11" style="stroke:#181818;stroke-width:1.0;"/><path d="M513.2656,54.875 Q513.4219,54.6563 513.6094,54.5469 Q513.7969,54.4375 514.0156,54.4375 Q514.3906,54.4375 514.625,54.7031 Q514.8594,54.9531 514.8594,55.5625 L514.8594,57.0156 Q514.8594,57.625 514.625,57.8906 Q514.3906,58.1563 514.0156,58.1563 Q513.6719,58.1563 513.4688,57.9531 Q513.2656,57.7656 513.1563,57.25 Q513.1094,56.8906 512.9219,56.7031 Q512.5938,56.3281 511.9844,56.1094 Q511.375,55.8906 510.75,55.8906 Q509.9844,55.8906 509.3438,56.2188 Q508.7188,56.5469 508.2188,57.2969 Q507.7344,58.0469 507.7344,59.0781 L507.7344,60.1719 Q507.7344,61.4063 508.625,62.2344 Q509.5156,63.0469 511.1094,63.0469 Q512.0469,63.0469 512.7031,62.7969 Q513.0938,62.6406 513.5156,62.2031 Q513.7813,61.9375 513.9219,61.8594 Q514.0781,61.7813 514.2813,61.7813 Q514.6094,61.7813 514.8594,62.0469 Q515.125,62.2969 515.125,62.6406 Q515.125,62.9844 514.7813,63.3906 Q514.2813,63.9688 513.4844,64.2969 Q512.4063,64.75 511.1094,64.75 Q509.5938,64.75 508.3906,64.125 Q507.4063,63.625 506.7188,62.5625 Q506.0313,61.4844 506.0313,60.2031 L506.0313,59.0469 Q506.0313,57.7188 506.6406,56.5781 Q507.2656,55.4219 508.3594,54.8125 Q509.4531,54.1875 510.6875,54.1875 Q511.4219,54.1875 512.0625,54.3594 Q512.7188,54.5156 513.2656,54.875 Z " fill="#000000"/><text fill="#000000" font-family="sans-serif" font-size="14" lengthAdjust="spacing" textLength="51" x="524.5" y="64.7285">Class01</text><line style="stroke:#181818;stroke-width:0.5;" x1="496.5" x2="577.5" y1="75" y2="75"/><line style="stroke:#181818;stroke-width:0.5;" x1="496.5" x2="577.5" y1="83" y2="83"/></g><!--class Class02--><g id="elem_Class02"><rect fill="#F1F1F1" height="48" id="Class02" rx="2.5" ry="2.5" style="stroke:#181818;stroke-width:0.5;" width="83" x="495.5" y="151"/><ellipse cx="510.5" cy="167" fill="#ADD1B2" rx="11" ry="11" style="stroke:#181818;stroke-width:1.0;"/><path d="M513.2656,162.875 Q513.4219,162.6563 513.6094,162.5469 Q513.7969,162.4375 514.0156,162.4375 Q514.3906,162.4375 514.625,162.7031 Q514.8594,162.9531 514.8594,163.5625 L514.8594,165.0156 Q514.8594,165.625 514.625,165.8906 Q514.3906,166.1563 514.0156,166.1563 Q513.6719,166.1563 513.4688,165.9531 Q513.2656,165.7656 513.1563,165.25 Q513.1094,164.8906 512.9219,164.7031 Q512.5938,164.3281 511.9844,164.1094 Q511.375,163.8906 510.75,163.8906 Q509.9844,163.8906 509.3438,164.2188 Q508.7188,164.5469 508.2188,165.2969 Q507.7344,166.0469 507.7344,167.0781 L507.7344,168.1719 Q507.7344,169.4063 508.625,170.2344 Q509.5156,171.0469 511.1094,171.0469 Q512.0469,171.0469 512.7031,170.7969 Q513.0938,170.6406 513.5156,170.2031 Q513.7813,169.9375 513.9219,169.8594 Q514.0781,169.7813 514.2813,169.7813 Q514.6094,169.7813 514.8594,170.0469 Q515.125,170.2969 515.125,170.6406 Q515.125,170.9844 514.7813,171.3906 Q514.2813,171.9688 513.4844,172.2969 Q512.4063,172.75 511.1094,172.75 Q509.5938,172.75 508.3906,172.125 Q507.4063,171.625 506.7188,170.5625 Q506.0313,169.4844 506.0313,168.2031 L506.0313,167.0469 Q506.0313,165.7188 506.6406,164.5781 Q507.2656,163.4219 508.3594,162.8125 Q509.4531,162.1875 510.6875,162.1875 Q511.4219,162.1875 512.0625,162.3594 Q512.7188,162.5156 513.2656,162.875 Z " fill="#000000"/><text fill="#000000" font-family="sans-serif" font-size="14" lengthAdjust="spacing" textLength="51" x="524.5" y="172.7285">Class02</text><line style="stroke:#181818;stroke-width:0.5;" x1="496.5" x2="577.5" y1="183" y2="183"/><line style="stroke:#181818;stroke-width:0.5;" x1="496.5" x2="577.5" y1="191" y2="191"/></g><!--class Class03--><g id="elem_Class03"><rect fill="#F1F1F1" height="48" id="Class03" rx="2.5" ry="2.5" style="stroke:#181818;stroke-width:0.5;" width="83" x="377.5" y="43"/><ellipse cx="392.5" cy="59" fill="#ADD1B2" rx="11" ry="11" style="stroke:#181818;stroke-width:1.0;"/><path d="M395.2656,54.875 Q395.4219,54.6563 395.6094,54.5469 Q395.7969,54.4375 396.0156,54.4375 Q396.3906,54.4375 396.625,54.7031 Q396.8594,54.9531 396.8594,55.5625 L396.8594,57.0156 Q396.8594,57.625 396.625,57.8906 Q396.3906,58.1563 396.0156,58.1563 Q395.6719,58.1563 395.4688,57.9531 Q395.2656,57.7656 395.1563,57.25 Q395.1094,56.8906 394.9219,56.7031 Q394.5938,56.3281 393.9844,56.1094 Q393.375,55.8906 392.75,55.8906 Q391.9844,55.8906 391.3438,56.2188 Q390.7188,56.5469 390.2188,57.2969 Q389.7344,58.0469 389.7344,59.0781 L389.7344,60.1719 Q389.7344,61.4063 390.625,62.2344 Q391.5156,63.0469 393.1094,63.0469 Q394.0469,63.0469 394.7031,62.7969 Q395.0938,62.6406 395.5156,62.2031 Q395.7813,61.9375 395.9219,61.8594 Q396.0781,61.7813 396.2813,61.7813 Q396.6094,61.7813 396.8594,62.0469 Q397.125,62.2969 397.125,62.6406 Q397.125,62.9844 396.7813,63.3906 Q396.2813,63.9688 395.4844,64.2969 Q394.4063,64.75 393.1094,64.75 Q391.5938,64.75 390.3906,64.125 Q389.4063,63.625 388.7188,62.5625 Q388.0313,61.4844 388.0313,60.2031 L388.0313,59.0469 Q388.0313,57.7188 388.6406,56.5781 Q389.2656,55.4219 390.3594,54.8125 Q391.4531,54.1875 392.6875,54.1875 Q393.4219,54.1875 394.0625,54.3594 Q394.7188,54.5156 395.2656,54.875 Z " fill="#000000"/><text fill="#000000" font-family="sans-serif" font-size="14" lengthAdjust="spacing" textLength="51" x="406.5" y="64.7285">Class03</text><line style="stroke:#181818;stroke-width:0.5;" x1="378.5" x2="459.5" y1="75" y2="75"/><line style="stroke:#181818;stroke-width:0.5;" x1="378.5" x2="459.5" y1="83" y2="83"/></g><!--class Class04--><g id="elem_Class04"><rect fill="#F1F1F1" height="48" id="Class04" rx="2.5" ry="2.5" style="stroke:#181818;stroke-width:0.5;" width="83" x="377.5" y="151"/><ellipse cx="392.5" cy="167" fill="#ADD1B2" rx="11" ry="11" style="stroke:#181818;stroke-width:1.0;"/><path d="M395.2656,162.875 Q395.4219,162.6563 395.6094,162.5469 Q395.7969,162.4375 396.0156,162.4375 Q396.3906,162.4375 396.625,162.7031 Q396.8594,162.9531 396.8594,163.5625 L396.8594,165.0156 Q396.8594,165.625 396.625,165.8906 Q396.3906,166.1563 396.0156,166.1563 Q395.6719,166.1563 395.4688,165.9531 Q395.2656,165.7656 395.1563,165.25 Q395.1094,164.8906 394.9219,164.7031 Q394.5938,164.3281 393.9844,164.1094 Q393.375,163.8906 392.75,163.8906 Q391.9844,163.8906 391.3438,164.2188 Q390.7188,164.5469 390.2188,165.2969 Q389.7344,166.0469 389.7344,167.0781 L389.7344,168.1719 Q389.7344,169.4063 390.625,170.2344 Q391.5156,171.0469 393.1094,171.0469 Q394.0469,171.0469 394.7031,170.7969 Q395.0938,170.6406 395.5156,170.2031 Q395.7813,169.9375 395.9219,169.8594 Q396.0781,169.7813 396.2813,169.7813 Q396.6094,169.7813 396.8594,170.0469 Q397.125,170.2969 397.125,170.6406 Q397.125,170.9844 396.7813,171.3906 Q396.2813,171.9688 395.4844,172.2969 Q394.4063,172.75 393.1094,172.75 Q391.5938,172.75 390.3906,172.125 Q389.4063,171.625 388.7188,170.5625 Q388.0313,169.4844 388.0313,168.2031 L388.0313,167.0469 Q388.0313,165.7188 388.6406,164.5781 Q389.2656,163.4219 390.3594,162.8125 Q391.4531,162.1875 392.6875,162.1875 Q393.4219,162.1875 394.0625,162.3594 Q394.7188,162.5156 395.2656,162.875 Z " fill="#000000"/><text fill="#000000" font-family="sans-serif" font-size="14" lengthAdjust="spacing" textLength="51" x="406.5" y="172.7285">Class04</text><line style="stroke:#181818;stroke-width:0.5;" x1="378.5" x2="459.5" y1="183" y2="183"/><line style="stroke:#181818;stroke-width:0.5;" x1="378.5" x2="459.5" y1="191" y2="191"/></g><!--class Class05--><g id="elem_Class05"><rect fill="#F1F1F1" height="48" id="Class05" rx="2.5" ry="2.5" style="stroke:#181818;stroke-width:0.5;" width="83" x="259.5" y="43"/><ellipse cx="274.5" cy="59" fill="#ADD1B2" rx="11" ry="11" style="stroke:#181818;stroke-width:1.0;"/><path d="M277.2656,54.875 Q277.4219,54.6563 277.6094,54.5469 Q277.7969,54.4375 278.0156,54.4375 Q278.3906,54.4375 278.625,54.7031 Q278.8594,54.9531 278.8594,55.5625 L278.8594,57.0156 Q278.8594,57.625 278.625,57.8906 Q278.3906,58.1563 278.0156,58.1563 Q277.6719,58.1563 277.4688,57.9531 Q277.2656,57.7656 277.1563,57.25 Q277.1094,56.8906 276.9219,56.7031 Q276.5938,56.3281 275.9844,56.1094 Q275.375,55.8906 274.75,55.8906 Q273.9844,55.8906 273.3438,56.2188 Q272.7188,56.5469 272.2188,57.2969 Q271.7344,58.0469 271.7344,59.0781 L271.7344,60.1719 Q271.7344,61.4063 272.625,62.2344 Q273.5156,63.0469 275.1094,63.0469 Q276.0469,63.0469 276.7031,62.7969 Q277.0938,62.6406 277.5156,62.2031 Q277.7813,61.9375 277.9219,61.8594 Q278.0781,61.7813 278.2813,61.7813 Q278.6094,61.7813 278.8594,62.0469 Q279.125,62.2969 279.125,62.6406 Q279.125,62.9844 278.7813,63.3906 Q278.2813,63.9688 277.4844,64.2969 Q276.4063,64.75 275.1094,64.75 Q273.5938,64.75 272.3906,64.125 Q271.4063,63.625 270.7188,62.5625 Q270.0313,61.4844 270.0313,60.2031 L270.0313,59.0469 Q270.0313,57.7188 270.6406,56.5781 Q271.2656,55.4219 272.3594,54.8125 Q273.4531,54.1875 274.6875,54.1875 Q275.4219,54.1875 276.0625,54.3594 Q276.7188,54.5156 277.2656,54.875 Z " fill="#000000"/><text fill="#000000" font-family="sans-serif" font-size="14" lengthAdjust="spacing" textLength="51" x="288.5" y="64.7285">Class05</text><line style="stroke:#181818;stroke-width:0.5;" x1="260.5" x2="341.5" y1="75" y2="75"/><line style="stroke:#181818;stroke-width:0.5;" x1="260.5" x2="341.5" y1="83" y2="83"/></g><!--class Class06--><g id="elem_Class06"><rect fill="#F1F1F1" height="48" id="Class06" rx="2.5" ry="2.5" style="stroke:#181818;stroke-width:0.5;" width="83" x="259.5" y="151"/><ellipse cx="274.5" cy="167" fill="#ADD1B2" rx="11" ry="11" style="stroke:#181818;stroke-width:1.0;"/><path d="M277.2656,162.875 Q277.4219,162.6563 277.6094,162.5469 Q277.7969,162.4375 278.0156,162.4375 Q278.3906,162.4375 278.625,162.7031 Q278.8594,162.9531 278.8594,163.5625 L278.8594,165.0156 Q278.8594,165.625 278.625,165.8906 Q278.3906,166.1563 278.0156,166.1563 Q277.6719,166.1563 277.4688,165.9531 Q277.2656,165.7656 277.1563,165.25 Q277.1094,164.8906 276.9219,164.7031 Q276.5938,164.3281 275.9844,164.1094 Q275.375,163.8906 274.75,163.8906 Q273.9844,163.8906 273.3438,164.2188 Q272.7188,164.5469 272.2188,165.2969 Q271.7344,166.0469 271.7344,167.0781 L271.7344,168.1719 Q271.7344,169.4063 272.625,170.2344 Q273.5156,171.0469 275.1094,171.0469 Q276.0469,171.0469 276.7031,170.7969 Q277.0938,170.6406 277.5156,170.2031 Q277.7813,169.9375 277.9219,169.8594 Q278.0781,169.7813 278.2813,169.7813 Q278.6094,169.7813 278.8594,170.0469 Q279.125,170.2969 279.125,170.6406 Q279.125,170.9844 278.7813,171.3906 Q278.2813,171.9688 277.4844,172.2969 Q276.4063,172.75 275.1094,172.75 Q273.5938,172.75 272.3906,172.125 Q271.4063,171.625 270.7188,170.5625 Q270.0313,169.4844 270.0313,168.2031 L270.0313,167.0469 Q270.0313,165.7188 270.6406,164.5781 Q271.2656,163.4219 272.3594,162.8125 Q273.4531,162.1875 274.6875,162.1875 Q275.4219,162.1875 276.0625,162.3594 Q276.7188,162.5156 277.2656,162.875 Z " fill="#000000"/><text fill="#000000" font-family="sans-serif" font-size="14" lengthAdjust="spacing" textLength="51" x="288.5" y="172.7285">Class06</text><line style="stroke:#181818;stroke-width:0.5;" x1="260.5" x2="341.5" y1="183" y2="183"/><line style="stroke:#181818;stroke-width:0.5;" x1="260.5" x2="341.5" y1="191" y2="191"/></g><!--class Class07--><g id="elem_Class07"><rect fill="#F1F1F1" height="48" id="Class07" rx="2.5" ry="2.5" style="stroke:#181818;stroke-width:0.5;" width="83" x="141.5" y="43"/><ellipse cx="156.5" cy="59" fill="#ADD1B2" rx="11" ry="11" style="stroke:#181818;stroke-width:1.0;"/><path d="M159.2656,54.875 Q159.4219,54.6563 159.6094,54.5469 Q159.7969,54.4375 160.0156,54.4375 Q160.3906,54.4375 160.625,54.7031 Q160.8594,54.9531 160.8594,55.5625 L160.8594,57.0156 Q160.8594,57.625 160.625,57.8906 Q160.3906,58.1563 160.0156,58.1563 Q159.6719,58.1563 159.4688,57.9531 Q159.2656,57.7656 159.1563,57.25 Q159.1094,56.8906 158.9219,56.7031 Q158.5938,56.3281 157.9844,56.1094 Q157.375,55.8906 156.75,55.8906 Q155.9844,55.8906 155.3438,56.2188 Q154.7188,56.5469 154.2188,57.2969 Q153.7344,58.0469 153.7344,59.0781 L153.7344,60.1719 Q153.7344,61.4063 154.625,62.2344 Q155.5156,63.0469 157.1094,63.0469 Q158.0469,63.0469 158.7031,62.7969 Q159.0938,62.6406 159.5156,62.2031 Q159.7813,61.9375 159.9219,61.8594 Q160.0781,61.7813 160.2813,61.7813 Q160.6094,61.7813 160.8594,62.0469 Q161.125,62.2969 161.125,62.6406 Q161.125,62.9844 160.7813,63.3906 Q160.2813,63.9688 159.4844,64.2969 Q158.4063,64.75 157.1094,64.75 Q155.5938,64.75 154.3906,64.125 Q153.4063,63.625 152.7188,62.5625 Q152.0313,61.4844 152.0313,60.2031 L152.0313,59.0469 Q152.0313,57.7188 152.6406,56.5781 Q153.2656,55.4219 154.3594,54.8125 Q155.4531,54.1875 156.6875,54.1875 Q157.4219,54.1875 158.0625,54.3594 Q158.7188,54.5156 159.2656,54.875 Z " fill="#000000"/><text fill="#000000" font-family="sans-serif" font-size="14" lengthAdjust="spacing" textLength="51" x="170.5" y="64.7285">Class07</text><line style="stroke:#181818;stroke-width:0.5;" x1="142.5" x2="223.5" y1="75" y2="75"/><line style="stroke:#181818;stroke-width:0.5;" x1="142.5" x2="223.5" y1="83" y2="83"/></g><!--class Class08--><g id="elem_Class08"><rect fill="#F1F1F1" height="48" id="Class08" rx="2.5" ry="2.5" style="stroke:#181818;stroke-width:0.5;" width="83" x="141.5" y="151"/><ellipse cx="156.5" cy="167" fill="#ADD1B2" rx="11" ry="11" style="stroke:#181818;stroke-width:1.0;"/><path d="M159.2656,162.875 Q159.4219,162.6563 159.6094,162.5469 Q159.7969,162.4375 160.0156,162.4375 Q160.3906,162.4375 160.625,162.7031 Q160.8594,162.9531 160.8594,163.5625 L160.8594,165.0156 Q160.8594,165.625 160.625,165.8906 Q160.3906,166.1563 160.0156,166.1563 Q159.6719,166.1563 159.4688,165.9531 Q159.2656,165.7656 159.1563,165.25 Q159.1094,164.8906 158.9219,164.7031 Q158.5938,164.3281 157.9844,164.1094 Q157.375,163.8906 156.75,163.8906 Q155.9844,163.8906 155.3438,164.2188 Q154.7188,164.5469 154.2188,165.2969 Q153.7344,166.0469 153.7344,167.0781 L153.7344,168.1719 Q153.7344,169.4063 154.625,170.2344 Q155.5156,171.0469 157.1094,171.0469 Q158.0469,171.0469 158.7031,170.7969 Q159.0938,170.6406 159.5156,170.2031 Q159.7813,169.9375 159.9219,169.8594 Q160.0781,169.7813 160.2813,169.7813 Q160.6094,169.7813 160.8594,170.0469 Q161.125,170.2969 161.125,170.6406 Q161.125,170.9844 160.7813,171.3906 Q160.2813,171.9688 159.4844,172.2969 Q158.4063,172.75 157.1094,172.75 Q155.5938,172.75 154.3906,172.125 Q153.4063,171.625 152.7188,170.5625 Q152.0313,169.4844 152.0313,168.2031 L152.0313,167.0469 Q152.0313,165.7188 152.6406,164.5781 Q153.2656,163.4219 154.3594,162.8125 Q155.4531,162.1875 156.6875,162.1875 Q157.4219,162.1875 158.0625,162.3594 Q158.7188,162.5156 159.2656,162.875 Z " fill="#000000"/><text fill="#000000" font-family="sans-serif" font-size="14" lengthAdjust="spacing" textLength="51" x="170.5" y="172.7285">Class08</text><line style="stroke:#181818;stroke-width:0.5;" x1="142.5" x2="223.5" y1="183" y2="183"/><line style="stroke:#181818;stroke-width:0.5;" x1="142.5" x2="223.5" y1="191" y2="191"/></g><!--class Class09--><g id="elem_Class09"><rect fill="#F1F1F1" height="48" id="Class09" rx="2.5" ry="2.5" style="stroke:#181818;stroke-width:0.5;" width="83" x="23.5" y="43"/><ellipse cx="38.5" cy="59" fill="#ADD1B2" rx="11" ry="11" style="stroke:#181818;stroke-width:1.0;"/><path d="M41.2656,54.875 Q41.4219,54.6563 41.6094,54.5469 Q41.7969,54.4375 42.0156,54.4375 Q42.3906,54.4375 42.625,54.7031 Q42.8594,54.9531 42.8594,55.5625 L42.8594,57.0156 Q42.8594,57.625 42.625,57.8906 Q42.3906,58.1563 42.0156,58.1563 Q41.6719,58.1563 41.4688,57.9531 Q41.2656,57.7656 41.1563,57.25 Q41.1094,56.8906 40.9219,56.7031 Q40.5938,56.3281 39.9844,56.1094 Q39.375,55.8906 38.75,55.8906 Q37.9844,55.8906 37.3438,56.2188 Q36.7188,56.5469 36.2188,57.2969 Q35.7344,58.0469 35.7344,59.0781 L35.7344,60.1719 Q35.7344,61.4063 36.625,62.2344 Q37.5156,63.0469 39.1094,63.0469 Q40.0469,63.0469 40.7031,62.7969 Q41.0938,62.6406 41.5156,62.2031 Q41.7813,61.9375 41.9219,61.8594 Q42.0781,61.7813 42.2813,61.7813 Q42.6094,61.7813 42.8594,62.0469 Q43.125,62.2969 43.125,62.6406 Q43.125,62.9844 42.7813,63.3906 Q42.2813,63.9688 41.4844,64.2969 Q40.4063,64.75 39.1094,64.75 Q37.5938,64.75 36.3906,64.125 Q35.4063,63.625 34.7188,62.5625 Q34.0313,61.4844 34.0313,60.2031 L34.0313,59.0469 Q34.0313,57.7188 34.6406,56.5781 Q35.2656,55.4219 36.3594,54.8125 Q37.4531,54.1875 38.6875,54.1875 Q39.4219,54.1875 40.0625,54.3594 Q40.7188,54.5156 41.2656,54.875 Z " fill="#000000"/><text fill="#000000" font-family="sans-serif" font-size="14" lengthAdjust="spacing" textLength="51" x="52.5" y="64.7285">Class09</text><line style="stroke:#181818;stroke-width:0.5;" x1="24.5" x2="105.5" y1="75" y2="75"/><line style="stroke:#181818;stroke-width:0.5;" x1="24.5" x2="105.5" y1="83" y2="83"/></g><!--class Class10--><g id="elem_Class10"><rect fill="#F1F1F1" height="48" id="Class10" rx="2.5" ry="2.5" style="stroke:#181818;stroke-width:0.5;" width="83" x="23.5" y="151"/><ellipse cx="38.5" cy="167" fill="#ADD1B2" rx="11" ry="11" style="stroke:#181818;stroke-width:1.0;"/><path d="M41.2656,162.875 Q41.4219,162.6563 41.6094,162.5469 Q41.7969,162.4375 42.0156,162.4375 Q42.3906,162.4375 42.625,162.7031 Q42.8594,162.9531 42.8594,163.5625 L42.8594,165.0156 Q42.8594,165.625 42.625,165.8906 Q42.3906,166.1563 42.0156,166.1563 Q41.6719,166.1563 41.4688,165.9531 Q41.2656,165.7656 41.1563,165.25 Q41.1094,164.8906 40.9219,164.7031 Q40.5938,164.3281 39.9844,164.1094 Q39.375,163.8906 38.75,163.8906 Q37.9844,163.8906 37.3438,164.2188 Q36.7188,164.5469 36.2188,165.2969 Q35.7344,166.0469 35.7344,167.0781 L35.7344,168.1719 Q35.7344,169.4063 36.625,170.2344 Q37.5156,171.0469 39.1094,171.0469 Q40.0469,171.0469 40.7031,170.7969 Q41.0938,170.6406 41.5156,170.2031 Q41.7813,169.9375 41.9219,169.8594 Q42.0781,169.7813 42.2813,169.7813 Q42.6094,169.7813 42.8594,170.0469 Q43.125,170.2969 43.125,170.6406 Q43.125,170.9844 42.7813,171.3906 Q42.2813,171.9688 41.4844,172.2969 Q40.4063,172.75 39.1094,172.75 Q37.5938,172.75 36.3906,172.125 Q35.4063,171.625 34.7188,170.5625 Q34.0313,169.4844 34.0313,168.2031 L34.0313,167.0469 Q34.0313,165.7188 34.6406,164.5781 Q35.2656,163.4219 36.3594,162.8125 Q37.4531,162.1875 38.6875,162.1875 Q39.4219,162.1875 40.0625,162.3594 Q40.7188,162.5156 41.2656,162.875 Z " fill="#000000"/><text fill="#000000" font-family="sans-serif" font-size="14" lengthAdjust="spacing" textLength="51" x="52.5" y="172.7285">Class10</text><line style="stroke:#181818;stroke-width:0.5;" x1="24.5" x2="105.5" y1="183" y2="183"/><line style="stroke:#181818;stroke-width:0.5;" x1="24.5" x2="105.5" y1="191" y2="191"/></g><!--class Class11--><g id="elem_Class11"><rect fill="#F1F1F1" height="48" id="Class11" rx="2.5" ry="2.5" style="stroke:#181818;stroke-width:0.5;" width="83" x="1107.5" y="43"/><ellipse cx="1122.5" cy="59" fill="#ADD1B2" rx="11" ry="11" style="stroke:#181818;stroke-width:1.0;"/><path d="M1125.2656,54.875 Q1125.4219,54.6563 1125.6094,54.5469 Q1125.7969,54.4375 1126.0156,54.4375 Q1126.3906,54.4375 1126.625,54.7031 Q1126.8594,54.9531 1126.8594,55.5625 L1126.8594,57.0156 Q1126.8594,57.625 1126.625,57.8906 Q1126.3906,58.1563 1126.0156,58.1563 Q1125.6719,58.1563 1125.4688,57.9531 Q1125.2656,57.7656 1125.1563,57.25 Q1125.1094,56.8906 1124.9219,56.7031 Q1124.5938,56.3281 1123.9844,56.1094 Q1123.375,55.8906 1122.75,55.8906 Q1121.9844,55.8906 1121.3438,56.2188 Q1120.7188,56.5469 1120.2188,57.2969 Q1119.7344,58.0469 1119.7344,59.0781 L1119.7344,60.1719 Q1119.7344,61.4063 1120.625,62.2344 Q1121.5156,63.0469 1123.1094,63.0469 Q1124.0469,63.0469 1124.7031,62.7969 Q1125.0938,62.6406 1125.5156,62.2031 Q1125.7813,61.9375 1125.9219,61.8594 Q1126.0781,61.7813 1126.2813,61.7813 Q1126.6094,61.7813 1126.8594,62.0469 Q1127.125,62.2969 1127.125,62.6406 Q1127.125,62.9844 1126.7813,63.3906 Q1126.2813,63.9688 1125.4844,64.2969 Q1124.4063,64.75 1123.1094,64.75 Q1121.5938,64.75 1120.3906,64.125 Q1119.4063,63.625 1118.7188,62.5625 Q1118.0313,61.4844 1118.0313,60.2031 L1118.0313,59.0469 Q1118.0313,57.7188 1118.6406,56.5781 Q1119.2656,55.4219 1120.3594,54.8125 Q1121.4531,54.1875 1122.6875,54.1875 Q1123.4219,54.1875 1124.0625,54.3594 Q1124.7188,54.5156 1125.2656,54.875 Z " fill="#000000"/><text fill="#000000" font-family="sans-serif" font-size="14" lengthAdjust="spacing" textLength="51" x="1136.5" y="64.7285">Class11</text><line style="stroke:#181818;stroke-width:0.5;" x1="1108.5" x2="1189.5" y1="75" y2="75"/><line style="stroke:#181818;stroke-width:0.5;" x1="1108.5" x2="1189.5" y1="83" y2="83"/></g><!--class Class12--><g id="elem_Class12"><rect fill="#F1F1F1" height="48" id="Class12" rx="2.5" ry="2.5" style="stroke:#181818;stroke-width:0.5;" width="83" x="1107.5" y="151"/><ellipse cx="1122.5" cy="167" fill="#ADD1B2" rx="11" ry="11" style="stroke:#181818;stroke-width:1.0;"/><path d="M1125.2656,162.875 Q1125.4219,162.6563 1125.6094,162.5469 Q1125.7969,162.4375 1126.0156,162.4375 Q1126.3906,162.4375 1126.625,162.7031 Q1126.8594,162.9531 1126.8594,163.5625 L1126.8594,165.0156 Q1126.8594,165.625 1126.625,165.8906 Q1126.3906,166.1563 1126.0156,166.1563 Q1125.6719,166.1563 1125.4688,165.9531 Q1125.2656,165.7656 1125.1563,165.25 Q1125.1094,164.8906 1124.9219,164.7031 Q1124.5938,164.3281 1123.9844,164.1094 Q1123.375,163.8906 1122.75,163.8906 Q1121.9844,163.8906 1121.3438,164.2188 Q1120.7188,164.5469 1120.2188,165.2969 Q1119.7344,166.0469 1119.7344,167.0781 L1119.7344,168.1719 Q1119.7344,169.4063 1120.625,170.2344 Q1121.5156,171.0469 1123.1094,171.0469 Q1124.0469,171.0469 1124.7031,170.7969 Q1125.0938,170.6406 1125.5156,170.2031 Q1125.7813,169.9375 1125.9219,169.8594 Q1126.0781,169.7813 1126.2813,169.7813 Q1126.6094,169.7813 1126.8594,170.0469 Q1127.125,170.2969 1127.125,170.6406 Q1127.125,170.9844 1126.7813,171.3906 Q1126.2813,171.9688 1125.4844,172.2969 Q1124.4063,172.75 1123.1094,172.75 Q1121.5938,172.75 1120.3906,172.125 Q1119.4063,171.625 1118.7188,170.5625 Q1118.0313,169.4844 1118.0313,168.2031 L1118.0313,167.0469 Q1118.0313,165.7188 1118.6406,164.5781 Q1119.2656,163.4219 1120.3594,162.8125 Q1121.4531,162.1875 1122.6875,162.1875 Q1123.4219,162.1875 1124.0625,162.3594 Q1124.7188,162.5156 1125.2656,162.875 Z " fill="#000000"/><text fill="#000000" font-family="sans-serif" font-size="14" lengthAdjust="spacing" textLength="51" x="1136.5" y="172.7285">Class12</text><line style="stroke:#181818;stroke-width:0.5;" x1="1108.5" x2="1189.5" y1="183" y2="183"/><line style="stroke:#181818;stroke-width:0.5;" x1="1108.5" x2="1189.5" y1="191" y2="191"/></g><!--class Class13--><g id="elem_Class13"><rect fill="#F1F1F1" height="48" id="Class13" rx="2.5" ry="2.5" style="stroke:#181818;stroke-width:0.5;" width="83" x="989.5" y="43"/><ellipse cx="1004.5" cy="59" fill="#ADD1B2" rx="11" ry="11" style="stroke:#181818;stroke-width:1.0;"/><path d="M1007.2656,54.875 Q1007.4219,54.6563 1007.6094,54.5469 Q1007.7969,54.4375 1008.0156,54.4375 Q1008.3906,54.4375 1008.625,54.7031 Q1008.8594,54.9531 1008.8594,55.5625 L1008.8594,57.0156 Q1008.8594,57.625 1008.625,57.8906 Q1008.3906,58.1563 1008.0156,58.1563 Q1007.6719,58.1563 1007.4688,57.9531 Q1007.2656,57.7656 1007.1563,57.25 Q1007.1094,56.8906 1006.9219,56.7031 Q1006.5938,56.3281 1005.9844,56.1094 Q1005.375,55.8906 1004.75,55.8906 Q1003.9844,55.8906 1003.3438,56.2188 Q1002.7188,56.5469 1002.2188,57.2969 Q1001.7344,58.0469 1001.7344,59.0781 L1001.7344,60.1719 Q1001.7344,61.4063 1002.625,62.2344 Q1003.5156,63.0469 1005.1094,63.0469 Q1006.0469,63.0469 1006.7031,62.7969 Q1007.0938,62.6406 1007.5156,62.2031 Q1007.7813,61.9375 1007.9219,61.8594 Q1008.0781,61.7813 1008.2813,61.7813 Q1008.6094,61.7813 1008.8594,62.0469 Q1009.125,62.2969 1009.125,62.6406 Q1009.125,62.9844 1008.7813,63.3906 Q1008.2813,63.9688 1007.4844,64.2969 Q1006.4063,64.75 1005.1094,64.75 Q1003.5938,64.75 1002.3906,64.125 Q1001.4063,63.625 1000.7188,62.5625 Q1000.0313,61.4844 1000.0313,60.2031 L1000.0313,59.0469 Q1000.0313,57.7188 1000.6406,56.5781 Q1001.2656,55.4219 1002.3594,54.8125 Q1003.4531,54.1875 1004.6875,54.1875 Q1005.4219,54.1875 1006.0625,54.3594 Q1006.7188,54.5156 1007.2656,54.875 Z " fill="#000000"/><text fill="#000000" font-family="sans-serif" font-size="14" lengthAdjust="spacing" textLength="51" x="1018.5" y="64.7285">Class13</text><line style="stroke:#181818;stroke-width:0.5;" x1="990.5" x2="1071.5" y1="75" y2="75"/><line style="stroke:#181818;stroke-width:0.5;" x1="990.5" x2="1071.5" y1="83" y2="83"/></g><!--class Class14--><g id="elem_Class14"><rect fill="#F1F1F1" height="48" id="Class14" rx="2.5" ry="2.5" style="stroke:#181818;stroke-width:0.5;" width="83" x="989.5" y="151"/><ellipse cx="1004.5" cy="167" fill="#ADD1B2" rx="11" ry="11" style="stroke:#181818;stroke-width:1.0;"/><path d="M1007.2656,162.875 Q1007.4219,162.6563 1007.6094,162.5469 Q1007.7969,162.4375 1008.0156,162.4375 Q1008.3906,162.4375 1008.625,162.7031 Q1008.8594,162.9531 1008.8594,163.5625 L1008.8594,165.0156 Q1008.8594,165.625 1008.625,165.8906 Q1008.3906,166.1563 1008.0156,166.1563 Q1007.6719,166.1563 1007.4688,165.9531 Q1007.2656,165.7656 1007.1563,165.25 Q1007.1094,164.8906 1006.9219,164.7031 Q1006.5938,164.3281 1005.9844,164.1094 Q1005.375,163.8906 1004.75,163.8906 Q1003.9844,163.8906 1003.3438,164.2188 Q1002.7188,164.5469 1002.2188,165.2969 Q1001.7344,166.0469 1001.7344,167.0781 L1001.7344,168.1719 Q1001.7344,169.4063 1002.625,170.2344 Q1003.5156,171.0469 1005.1094,171.0469 Q1006.0469,171.0469 1006.7031,170.7969 Q1007.0938,170.6406 1007.5156,170.2031 Q1007.7813,169.9375 1007.9219,169.8594 Q1008.0781,169.7813 1008.2813,169.7813 Q1008.6094,169.7813 1008.8594,170.0469 Q1009.125,170.2969 1009.125,170.6406 Q1009.125,170.9844 1008.7813,171.3906 Q1008.2813,171.9688 1007.4844,172.2969 Q1006.4063,172.75 1005.1094,172.75 Q1003.5938,172.75 1002.3906,172.125 Q1001.4063,171.625 1000.7188,170.5625 Q1000.0313,169.4844 1000.0313,168.2031 L1000.0313,167.0469 Q1000.0313,165.7188 1000.6406,164.5781 Q1001.2656,163.4219 1002.3594,162.8125 Q1003.4531,162.1875 1004.6875,162.1875 Q1005.4219,162.1875 1006.0625,162.3594 Q1006.7188,162.5156 1007.2656,162.875 Z " fill="#000000"/><text fill="#000000" font-family="sans-serif" font-size="14" lengthAdjust="spacing" textLength="51" x="1018.5" y="172.7285">Class14</text><line style="stroke:#181818;stroke-width:0.5;" x1="990.5" x2="1071.5" y1="183" y2="183"/><line style="stroke:#181818;stroke-width:0.5;" x1="990.5" x2="1071.5" y1="191" y2="191"/></g><!--class Class15--><g id="elem_Class15"><rect fill="#F1F1F1" height="48" id="Class15" rx="2.5" ry="2.5" style="stroke:#181818;stroke-width:0.5;" width="83" x="871.5" y="43"/><ellipse cx="886.5" cy="59" fill="#ADD1B2" rx="11" ry="11" style="stroke:#181818;stroke-width:1.0;"/><path d="M889.2656,54.875 Q889.4219,54.6563 889.6094,54.5469 Q889.7969,54.4375 890.0156,54.4375 Q890.3906,54.4375 890.625,54.7031 Q890.8594,54.9531 890.8594,55.5625 L890.8594,57.0156 Q890.8594,57.625 890.625,57.8906 Q890.3906,58.1563 890.0156,58.1563 Q889.6719,58.1563 889.4688,57.9531 Q889.2656,57.7656 889.1563,57.25 Q889.1094,56.8906 888.9219,56.7031 Q888.5938,56.3281 887.9844,56.1094 Q887.375,55.8906 886.75,55.8906 Q885.9844,55.8906 885.3438,56.2188 Q884.7188,56.5469 884.2188,57.2969 Q883.7344,58.0469 883.7344,59.0781 L883.7344,60.1719 Q883.7344,61.4063 884.625,62.2344 Q885.5156,63.0469 887.1094,63.0469 Q888.0469,63.0469 888.7031,62.7969 Q889.0938,62.6406 889.5156,62.2031 Q889.7813,61.9375 889.9219,61.8594 Q890.0781,61.7813 890.2813,61.7813 Q890.6094,61.7813 890.8594,62.0469 Q891.125,62.2969 891.125,62.6406 Q891.125,62.9844 890.7813,63.3906 Q890.2813,63.9688 889.4844,64.2969 Q888.4063,64.75 887.1094,64.75 Q885.5938,64.75 884.3906,64.125 Q883.4063,63.625 882.7188,62.5625 Q882.0313,61.4844 882.0313,60.2031 L882.0313,59.0469 Q882.0313,57.7188 882.6406,56.5781 Q883.2656,55.4219 884.3594,54.8125 Q885.4531,54.1875 886.6875,54.1875 Q887.4219,54.1875 888.0625,54.3594 Q888.7188,54.5156 889.2656,54.875 Z " fill="#000000"/><text fill="#000000" font-family="sans-serif" font-size="14" lengthAdjust="spacing" textLength="51" x="900.5" y="64.7285">Class15</text><line style="stroke:#181818;stroke-width:0.5;" x1="872.5" x2="953.5" y1="75" y2="75"/><line style="stroke:#181818;stroke-width:0.5;" x1="872.5" x2="953.5" y1="83" y2="83"/></g><!--class Class16--><g id="elem_Class16"><rect fill="#F1F1F1" height="48" id="Class16" rx="2.5" ry="2.5" style="stroke:#181818;stroke-width:0.5;" width="83" x="871.5" y="151"/><ellipse cx="886.5" cy="167" fill="#ADD1B2" rx="11" ry="11" style="stroke:#181818;stroke-width:1.0;"/><path d="M889.2656,162.875 Q889.4219,162.6563 889.6094,162.5469 Q889.7969,162.4375 890.0156,162.4375 Q890.3906,162.4375 890.625,162.7031 Q890.8594,162.9531 890.8594,163.5625 L890.8594,165.0156 Q890.8594,165.625 890.625,165.8906 Q890.3906,166.1563 890.0156,166.1563 Q889.6719,166.1563 889.4688,165.9531 Q889.2656,165.7656 889.1563,165.25 Q889.1094,164.8906 888.9219,164.7031 Q888.5938,164.3281 887.9844,164.1094 Q887.375,163.8906 886.75,163.8906 Q885.9844,163.8906 885.3438,164.2188 Q884.7188,164.5469 884.2188,165.2969 Q883.7344,166.0469 883.7344,167.0781 L883.7344,168.1719 Q883.7344,169.4063 884.625,170.2344 Q885.5156,171.0469 887.1094,171.0469 Q888.0469,171.0469 888.7031,170.7969 Q889.0938,170.6406 889.5156,170.2031 Q889.7813,169.9375 889.9219,169.8594 Q890.0781,169.7813 890.2813,169.7813 Q890.6094,169.7813 890.8594,170.0469 Q891.125,170.2969 891.125,170.6406 Q891.125,170.9844 890.7813,171.3906 Q890.2813,171.9688 889.4844,172.2969 Q888.4063,172.75 887.1094,172.75 Q885.5938,172.75 884.3906,172.125 Q883.4063,171.625 882.7188,170.5625 Q882.0313,169.4844 882.0313,168.2031 L882.0313,167.0469 Q882.0313,165.7188 882.6406,164.5781 Q883.2656,163.4219 884.3594,162.8125 Q885.4531,162.1875 886.6875,162.1875 Q887.4219,162.1875 888.0625,162.3594 Q888.7188,162.5156 889.2656,162.875 Z " fill="#000000"/><text fill="#000000" font-family="sans-serif" font-size="14" lengthAdjust="spacing" textLength="51" x="900.5" y="172.7285">Class16</text><line style="stroke:#181818;stroke-width:0.5;" x1="872.5" x2="953.5" y1="183" y2="183"/><line style="stroke:#181818;stroke-width:0.5;" x1="872.5" x2="953.5" y1="191" y2="191"/></g><!--class Class17--><g id="elem_Class17"><rect fill="#F1F1F1" height="48" id="Class17" rx="2.5" ry="2.5" style="stroke:#181818;stroke-width:0.5;" width="83" x="753.5" y="43"/><ellipse cx="768.5" cy="59" fill="#ADD1B2" rx="11" ry="11" style="stroke:#181818;stroke-width:1.0;"/><path d="M771.2656,54.875 Q771.4219,54.6563 771.6094,54.5469 Q771.7969,54.4375 772.0156,54.4375 Q772.3906,54.4375 772.625,54.7031 Q772.8594,54.9531 772.8594,55.5625 L772.8594,57.0156 Q772.8594,57.625 772.625,57.8906 Q772.3906,58.1563 772.0156,58.1563 Q771.6719,58.1563 771.4688,57.9531 Q771.2656,57.7656 771.1563,57.25 Q771.1094,56.8906 770.9219,56.7031 Q770.5938,56.3281 769.9844,56.1094 Q769.375,55.8906 768.75,55.8906 Q767.9844,55.8906 767.3438,56.2188 Q766.7188,56.5469 766.2188,57.2969 Q765.7344,58.0469 765.7344,59.0781 L765.7344,60.1719 Q765.7344,61.4063 766.625,62.2344 Q767.5156,63.0469 769.1094,63.0469 Q770.0469,63.0469 770.7031,62.7969 Q771.0938,62.6406 771.5156,62.2031 Q771.7813,61.9375 771.9219,61.8594 Q772.0781,61.7813 772.2813,61.7813 Q772.6094,61.7813 772.8594,62.0469 Q773.125,62.2969 773.125,62.6406 Q773.125,62.9844 772.7813,63.3906 Q772.2813,63.9688 771.4844,64.2969 Q770.4063,64.75 769.1094,64.75 Q767.5938,64.75 766.3906,64.125 Q765.4063,63.625 764.7188,62.5625 Q764.0313,61.4844 764.0313,60.2031 L764.0313,59.0469 Q764.0313,57.7188 764.6406,56.5781 Q765.2656,55.4219 766.3594,54.8125 Q767.4531,54.1875 768.6875,54.1875 Q769.4219,54.1875 770.0625,54.3594 Q770.7188,54.5156 771.2656,54.875 Z " fill="#000000"/><text fill="#000000" font-family="sans-serif" font-size="14" lengthAdjust="spacing" textLength="51" x="782.5" y="64.7285">Class17</text><line style="stroke:#181818;stroke-width:0.5;" x1="754.5" x2="835.5" y1="75" y2="75"/><line style="stroke:#181818;stroke-width:0.5;" x1="754.5" x2="835.5" y1="83" y2="83"/></g><!--class Class18--><g id="elem_Class18"><rect fill="#F1F1F1" height="48" id="Class18" rx="2.5" ry="2.5" style="stroke:#181818;stroke-width:0.5;" width="83" x="753.5" y="151"/><ellipse cx="768.5" cy="167" fill="#ADD1B2" rx="11" ry="11" style="stroke:#181818;stroke-width:1.0;"/><path d="M771.2656,162.875 Q771.4219,162.6563 771.6094,162.5469 Q771.7969,162.4375 772.0156,162.4375 Q772.3906,162.4375 772.625,162.7031 Q772.8594,162.9531 772.8594,163.5625 L772.8594,165.0156 Q772.8594,165.625 772.625,165.8906 Q772.3906,166.1563 772.0156,166.1563 Q771.6719,166.1563 771.4688,165.9531 Q771.2656,165.7656 771.1563,165.25 Q771.1094,164.8906 770.9219,164.7031 Q770.5938,164.3281 769.9844,164.1094 Q769.375,163.8906 768.75,163.8906 Q767.9844,163.8906 767.3438,164.2188 Q766.7188,164.5469 766.2188,165.2969 Q765.7344,166.0469 765.7344,167.0781 L765.7344,168.1719 Q765.7344,169.4063 766.625,170.2344 Q767.5156,171.0469 769.1094,171.0469 Q770.0469,171.0469 770.7031,170.7969 Q771.0938,170.6406 771.5156,170.2031 Q771.7813,169.9375 771.9219,169.8594 Q772.0781,169.7813 772.2813,169.7813 Q772.6094,169.7813 772.8594,170.0469 Q773.125,170.2969 773.125,170.6406 Q773.125,170.9844 772.7813,171.3906 Q772.2813,171.9688 771.4844,172.2969 Q770.4063,172.75 769.1094,172.75 Q767.5938,172.75 766.3906,172.125 Q765.4063,171.625 764.7188,170.5625 Q764.0313,169.4844 764.0313,168.2031 L764.0313,167.0469 Q764.0313,165.7188 764.6406,164.5781 Q765.2656,163.4219 766.3594,162.8125 Q767.4531,162.1875 768.6875,162.1875 Q769.4219,162.1875 770.0625,162.3594 Q770.7188,162.5156 771.2656,162.875 Z " fill="#000000"/><text fill="#000000" font-family="sans-serif" font-size="14" lengthAdjust="spacing" textLength="51" x="782.5" y="172.7285">Class18</text><line style="stroke:#181818;stroke-width:0.5;" x1="754.5" x2="835.5" y1="183" y2="183"/><line style="stroke:#181818;stroke-width:0.5;" x1="754.5" x2="835.5" y1="191" y2="191"/></g><!--class Class19--><g id="elem_Class19"><rect fill="#F1F1F1" height="48" id="Class19" rx="2.5" ry="2.5" style="stroke:#181818;stroke-width:0.5;" width="83" x="635.5" y="43"/><ellipse cx="650.5" cy="59" fill="#ADD1B2" rx="11" ry="11" style="stroke:#181818;stroke-width:1.0;"/><path d="M653.2656,54.875 Q653.4219,54.6563 653.6094,54.5469 Q653.7969,54.4375 654.0156,54.4375 Q654.3906,54.4375 654.625,54.7031 Q654.8594,54.9531 654.8594,55.5625 L654.8594,57.0156 Q654.8594,57.625 654.625,57.8906 Q654.3906,58.1563 654.0156,58.1563 Q653.6719,58.1563 653.4688,57.9531 Q653.2656,57.7656 653.1563,57.25 Q653.1094,56.8906 652.9219,56.7031 Q652.5938,56.3281 651.9844,56.1094 Q651.375,55.8906 650.75,55.8906 Q649.9844,55.8906 649.3438,56.2188 Q648.7188,56.5469 648.2188,57.2969 Q647.7344,58.0469 647.7344,59.0781 L647.7344,60.1719 Q647.7344,61.4063 648.625,62.2344 Q649.5156,63.0469 651.1094,63.0469 Q652.0469,63.0469 652.7031,62.7969 Q653.0938,62.6406 653.5156,62.2031 Q653.7813,61.9375 653.9219,61.8594 Q654.0781,61.7813 654.2813,61.7813 Q654.6094,61.7813 654.8594,62.0469 Q655.125,62.2969 655.125,62.6406 Q655.125,62.9844 654.7813,63.3906 Q654.2813,63.9688 653.4844,64.2969 Q652.4063,64.75 651.1094,64.75 Q649.5938,64.75 648.3906,64.125 Q647.4063,63.625 646.7188,62.5625 Q646.0313,61.4844 646.0313,60.2031 L646.0313,59.0469 Q646.0313,57.7188 646.6406,56.5781 Q647.2656,55.4219 648.3594,54.8125 Q649.4531,54.1875 650.6875,54.1875 Q651.4219,54.1875 652.0625,54.3594 Q652.7188,54.5156 653.2656,54.875 Z " fill="#000000"/><text fill="#000000" font-family="sans-serif" font-size="14" lengthAdjust="spacing" textLength="51" x="664.5" y="64.7285">Class19</text><line style="stroke:#181818;stroke-width:0.5;" x1="636.5" x2="717.5" y1="75" y2="75"/><line style="stroke:#181818;stroke-width:0.5;" x1="636.5" x2="717.5" y1="83" y2="83"/></g><!--class Class20--><g id="elem_Class20"><rect fill="#F1F1F1" height="48" id="Class20" rx="2.5" ry="2.5" style="stroke:#181818;stroke-width:0.5;" width="83" x="635.5" y="151"/><ellipse cx="650.5" cy="167" fill="#ADD1B2" rx="11" ry="11" style="stroke:#181818;stroke-width:1.0;"/><path d="M653.2656,162.875 Q653.4219,162.6563 653.6094,162.5469 Q653.7969,162.4375 654.0156,162.4375 Q654.3906,162.4375 654.625,162.7031 Q654.8594,162.9531 654.8594,163.5625 L654.8594,165.0156 Q654.8594,165.625 654.625,165.8906 Q654.3906,166.1563 654.0156,166.1563 Q653.6719,166.1563 653.4688,165.9531 Q653.2656,165.7656 653.1563,165.25 Q653.1094,164.8906 652.9219,164.7031 Q652.5938,164.3281 651.9844,164.1094 Q651.375,163.8906 650.75,163.8906 Q649.9844,163.8906 649.3438,164.2188 Q648.7188,164.5469 648.2188,165.2969 Q647.7344,166.0469 647.7344,167.0781 L647.7344,168.1719 Q647.7344,169.4063 648.625,170.2344 Q649.5156,171.0469 651.1094,171.0469 Q652.0469,171.0469 652.7031,170.7969 Q653.0938,170.6406 653.5156,170.2031 Q653.7813,169.9375 653.9219,169.8594 Q654.0781,169.7813 654.2813,169.7813 Q654.6094,169.7813 654.8594,170.0469 Q655.125,170.2969 655.125,170.6406 Q655.125,170.9844 654.7813,171.3906 Q654.2813,171.9688 653.4844,172.2969 Q652.4063,172.75 651.1094,172.75 Q649.5938,172.75 648.3906,172.125 Q647.4063,171.625 646.7188,170.5625 Q646.0313,169.4844 646.0313,168.2031 L646.0313,167.0469 Q646.0313,165.7188 646.6406,164.5781 Q647.2656,163.4219 648.3594,162.8125 Q649.4531,162.1875 650.6875,162.1875 Q651.4219,162.1875 652.0625,162.3594 Q652.7188,162.5156 653.2656,162.875 Z " fill="#000000"/><text fill="#000000" font-family="sans-serif" font-size="14" lengthAdjust="spacing" textLength="51" x="664.5" y="172.7285">Class20</text><line style="stroke:#181818;stroke-width:0.5;" x1="636.5" x2="717.5" y1="183" y2="183"/><line style="stroke:#181818;stroke-width:0.5;" x1="636.5" x2="717.5" y1="191" y2="191"/></g><!--class Class21--><g id="elem_Class21"><rect fill="#F1F1F1" height="48" id="Class21" rx="2.5" ry="2.5" style="stroke:#181818;stroke-width:0.5;" width="83" x="1719.5" y="43"/><ellipse cx="1734.5" cy="59" fill="#ADD1B2" rx="11" ry="11" style="stroke:#181818;stroke-width:1.0;"/><path d="M1737.2656,54.875 Q1737.4219,54.6563 1737.6094,54.5469 Q1737.7969,54.4375 1738.0156,54.4375 Q1738.3906,54.4375 1738.625,54.7031 Q1738.8594,54.9531 1738.8594,55.5625 L1738.8594,57.0156 Q1738.8594,57.625 1738.625,57.8906 Q1738.3906,58.1563 1738.0156,58.1563 Q1737.6719,58.1563 1737.4688,57.9531 Q1737.2656,57.7656 1737.1563,57.25 Q1737.1094,56.8906 1736.9219,56.7031 Q1736.5938,56.3281 1735.9844,56.1094 Q1735.375,55.8906 1734.75,55.8906 Q1733.9844,55.8906 1733.3438,56.2188 Q1732.7188,56.5469 1732.2188,57.2969 Q1731.7344,58.0469 1731.7344,59.0781 L1731.7344,60.1719 Q1731.7344,61.4063 1732.625,62.2344 Q1733.5156,63.0469 1735.1094,63.0469 Q1736.0469,63.0469 1736.7031,62.7969 Q1737.0938,62.6406 1737.5156,62.2031 Q1737.7813,61.9375 1737.9219,61.8594 Q1738.0781,61.7813 1738.2813,61.7813 Q1738.6094,61.7813 1738.8594,62.0469 Q1739.125,62.2969 1739.125,62.6406 Q1739.125,62.9844 1738.7813,63.3906 Q1738.2813,63.9688 1737.4844,64.2969 Q1736.4063,64.75 1735.1094,64.75 Q1733.5938,64.75 1732.3906,64.125 Q1731.4063,63.625 1730.7188,62.5625 Q1730.0313,61.4844 1730.0313,60.2031 L1730.0313,59.0469 Q1730.0313,57.7188 1730.6406,56.5781 Q1731.2656,55.4219 1732.3594,54.8125 Q1733.4531,54.1875 1734.6875,54.1875 Q1735.4219,54.1875 1736.0625,54.3594 Q1736.7188,54.5156 1737.2656,54.875 Z " fill="#000000"/><text fill="#000000" font-family="sans-serif" font-size="14" lengthAdjust="spacing" textLength="51" x="1748.5" y="64.7285">Class21</text><line style="stroke:#181818;stroke-width:0.5;" x1="1720.5" x2="1801.5" y1="75" y2="75"/><line style="stroke:#181818;stroke-width:0.5;" x1="1720.5" x2="1801.5" y1="83" y2="83"/></g><!--class Class22--><g id="elem_Class22"><rect fill="#F1F1F1" height="48" id="Class22" rx="2.5" ry="2.5" style="stroke:#181818;stroke-width:0.5;" width="83" x="1719.5" y="151"/><ellipse cx="1734.5" cy="167" fill="#ADD1B2" rx="11" ry="11" style="stroke:#181818;stroke-width:1.0;"/><path d="M1737.2656,162.875 Q1737.4219,162.6563 1737.6094,162.5469 Q1737.7969,162.4375 1738.0156,162.4375 Q1738.3906,162.4375 1738.625,162.7031 Q1738.8594,162.9531 1738.8594,163.5625 L1738.8594,165.0156 Q1738.8594,165.625 1738.625,165.8906 Q1738.3906,166.1563 1738.0156,166.1563 Q1737.6719,166.1563 1737.4688,165.9531 Q1737.2656,165.7656 1737.1563,165.25 Q1737.1094,164.8906 1736.9219,164.7031 Q1736.5938,164.3281 1735.9844,164.1094 Q1735.375,163.8906 1734.75,163.8906 Q1733.9844,163.8906 1733.3438,164.2188 Q1732.7188,164.5469 1732.2188,165.2969 Q1731.7344,166.0469 1731.7344,167.0781 L1731.7344,168.1719 Q1731.7344,169.4063 1732.625,170.2344 Q1733.5156,171.0469 1735.1094,171.0469 Q1736.0469,171.0469 1736.7031,170.7969 Q1737.0938,170.6406 1737.5156,170.2031 Q1737.7813,169.9375 1737.9219,169.8594 Q1738.0781,169.7813 1738.2813,169.7813 Q1738.6094,169.7813 1738.8594,170.0469 Q1739.125,170.2969 1739.125,170.6406 Q1739.125,170.9844 1738.7813,171.3906 Q1738.2813,171.9688 1737.4844,172.2969 Q1736.4063,172.75 1735.1094,172.75 Q1733.5938,172.75 1732.3906,172.125 Q1731.4063,171.625 1730.7188,170.5625 Q1730.0313,169.4844 1730.0313,168.2031 L1730.0313,167.0469 Q1730.0313,165.7188 1730.6406,164.5781 Q1731.2656,163.4219 1732.3594,162.8125 Q1733.4531,162.1875 1734.6875,162.1875 Q1735.4219,162.1875 1736.0625,162.3594 Q1736.7188,162.5156 1737.2656,162.875 Z " fill="#000000"/><text fill="#000000" font-family="sans-serif" font-size="14" lengthAdjust="spacing" textLength="51" x="1748.5" y="172.7285">Class22</text><line style="stroke:#181818;stroke-width:0.5;" x1="1720.5" x2="1801.5" y1="183" y2="183"/><line style="stroke:#181818;stroke-width:0.5;" x1="1720.5" x2="1801.5" y1="191" y2="191"/></g><!--class Class23--><g id="elem_Class23"><rect fill="#F1F1F1" height="48" id="Class23" rx="2.5" ry="2.5" style="stroke:#181818;stroke-width:0.5;" width="83" x="1601.5" y="43"/><ellipse cx="1616.5" cy="59" fill="#ADD1B2" rx="11" ry="11" style="stroke:#181818;stroke-width:1.0;"/><path d="M1619.2656,54.875 Q1619.4219,54.6563 1619.6094,54.5469 Q1619.7969,54.4375 1620.0156,54.4375 Q1620.3906,54.4375 1620.625,54.7031 Q1620.8594,54.9531 1620.8594,55.5625 L1620.8594,57.0156 Q1620.8594,57.625 1620.625,57.8906 Q1620.3906,58.1563 1620.0156,58.1563 Q1619.6719,58.1563 1619.4688,57.9531 Q1619.2656,57.7656 1619.1563,57.25 Q1619.1094,56.8906 1618.9219,56.7031 Q1618.5938,56.3281 1617.9844,56.1094 Q1617.375,55.8906 1616.75,55.8906 Q1615.9844,55.8906 1615.3438,56.2188 Q1614.7188,56.5469 1614.2188,57.2969 Q1613.7344,58.0469 1613.7344,59.0781 L1613.7344,60.1719 Q1613.7344,61.4063 1614.625,62.2344 Q1615.5156,63.0469 1617.1094,63.0469 Q1618.0469,63.0469 1618.7031,62.7969 Q1619.0938,62.6406 1619.5156,62.2031 Q1619.7813,61.9375 1619.9219,61.8594 Q1620.0781,61.7813 1620.2813,61.7813 Q1620.6094,61.7813 1620.8594,62.0469 Q1621.125,62.2969 1621.125,62.6406 Q1621.125,62.9844 1620.7813,63.3906 Q1620.2813,63.9688 1619.4844,64.2969 Q1618.4063,64.75 1617.1094,64.75 Q1615.5938,64.75 1614.3906,64.125 Q1613.4063,63.625 1612.7188,62.5625 Q1612.0313,61.4844 1612.0313,60.2031 L1612.0313,59.0469 Q1612.0313,57.7188 1612.6406,56.5781 Q1613.2656,55.4219 1614.3594,54.8125 Q1615.4531,54.1875 1616.6875,54.1875 Q1617.4219,54.1875 1618.0625,54.3594 Q1618.7188,54.5156 1619.2656,54.875 Z " fill="#000000"/><text fill="#000000" font-family="sans-serif" font-size="14" lengthAdjust="spacing" textLength="51" x="1630.5" y="64.7285">Class23</text><line style="stroke:#181818;stroke-width:0.5;" x1="1602.5" x2="1683.5" y1="75" y2="75"/><line style="stroke:#181818;stroke-width:0.5;" x1="1602.5" x2="1683.5" y1="83" y2="83"/></g><!--class Class24--><g id="elem_Class24"><rect fill="#F1F1F1" height="48" id="Class24" rx="2.5" ry="2.5" style="stroke:#181818;stroke-width:0.5;" width="83" x="1601.5" y="151"/><ellipse cx="1616.5" cy="167" fill="#ADD1B2" rx="11" ry="11" style="stroke:#181818;stroke-width:1.0;"/><path d="M1619.2656,162.875 Q1619.4219,162.6563 1619.6094,162.5469 Q1619.7969,162.4375 1620.0156,162.4375 Q1620.3906,162.4375 1620.625,162.7031 Q1620.8594,162.9531 1620.8594,163.5625 L1620.8594,165.0156 Q1620.8594,165.625 1620.625,165.8906 Q1620.3906,166.1563 1620.0156,166.1563 Q1619.6719,166.1563 1619.4688,165.9531 Q1619.2656,165.7656 1619.1563,165.25 Q1619.1094,164.8906 1618.9219,164.7031 Q1618.5938,164.3281 1617.9844,164.1094 Q1617.375,163.8906 1616.75,163.8906 Q1615.9844,163.8906 1615.3438,164.2188 Q1614.7188,164.5469 1614.2188,165.2969 Q1613.7344,166.0469 1613.7344,167.0781 L1613.7344,168.1719 Q1613.7344,169.4063 1614.625,170.2344 Q1615.5156,171.0469 1617.1094,171.0469 Q1618.0469,171.0469 1618.7031,170.7969 Q1619.0938,170.6406 1619.5156,170.2031 Q1619.7813,169.9375 1619.9219,169.8594 Q1620.0781,169.7813 1620.2813,169.7813 Q1620.6094,169.7813 1620.8594,170.0469 Q1621.125,170.2969 1621.125,170.6406 Q1621.125,170.9844 1620.7813,171.3906 Q1620.2813,171.9688 1619.4844,172.2969 Q1618.4063,172.75 1617.1094,172.75 Q1615.5938,172.75 1614.3906,172.125 Q1613.4063,171.625 1612.7188,170.5625 Q1612.0313,169.4844 1612.0313,168.2031 L1612.0313,167.0469 Q1612.0313,165.7188 1612.6406,164.5781 Q1613.2656,163.4219 1614.3594,162.8125 Q1615.4531,162.1875 1616.6875,162.1875 Q1617.4219,162.1875 1618.0625,162.3594 Q1618.7188,162.5156 1619.2656,162.875 Z " fill="#000000"/><text fill="#000000" font-family="sans-serif" font-size="14" lengthAdjust="spacing" textLength="51" x="1630.5" y="172.7285">Class24</text><line style="stroke:#181818;stroke-width:0.5;" x1="1602.5" x2="1683.5" y1="183" y2="183"/><line style="stroke:#181818;stroke-width:0.5;" x1="1602.5" x2="1683.5" y1="191" y2="191"/></g><!--class Class25--><g id="elem_Class25"><rect fill="#F1F1F1" height="48" id="Class25" rx="2.5" ry="2.5" style="stroke:#181818;stroke-width:0.5;" width="83" x="1483.5" y="43"/><ellipse cx="1498.5" cy="59" fill="#ADD1B2" rx="11" ry="11" style="stroke:#181818;stroke-width:1.0;"/><path d="M1501.2656,54.875 Q1501.4219,54.6563 1501.6094,54.5469 Q1501.7969,54.4375 1502.0156,54.4375 Q1502.3906,54.4375 1502.625,54.7031 Q1502.8594,54.9531 1502.8594,55.5625 L1502.8594,57.0156 Q1502.8594,57.625 1502.625,57.8906 Q1502.3906,58.1563 1502.0156,58.1563 Q1501.6719,58.1563 1501.4688,57.9531 Q1501.2656,57.7656 1501.1563,57.25 Q1501.1094,56.8906 1500.9219,56.7031 Q1500.5938,56.3281 1499.9844,56.1094 Q1499.375,55.8906 1498.75,55.8906 Q1497.9844,55.8906 1497.3438,56.2188 Q1496.7188,56.5469 1496.2188,57.2969 Q1495.7344,58.0469 1495.7344,59.0781 L1495.7344,60.1719 Q1495.7344,61.4063 1496.625,62.2344 Q1497.5156,63.0469 1499.1094,63.0469 Q1500.0469,63.0469 1500.7031,62.7969 Q1501.0938,62.6406 1501.5156,62.2031 Q1501.7813,61.9375 1501.9219,61.8594 Q1502.0781,61.7813 1502.2813,61.7813 Q1502.6094,61.7813 1502.8594,62.0469 Q1503.125,62.2969 1503.125,62.6406 Q1503.125,62.9844 1502.7813,63.3906 Q1502.2813,63.9688 1501.4844,64.2969 Q1500.4063,64.75 1499.1094,64.75 Q1497.5938,64.75 1496.3906,64.125 Q1495.4063,63.625 1494.7188,62.5625 Q1494.0313,61.4844 1494.0313,60.2031 L1494.0313,59.0469 Q1494.0313,57.7188 1494.6406,56.5781 Q1495.2656,55.4219 1496.3594,54.8125 Q1497.4531,54.1875 1498.6875,54.1875 Q1499.4219,54.1875 1500.0625,54.3594 Q1500.7188,54.5156 1501.2656,54.875 Z " fill="#000000"/><text fill="#000000" font-family="sans-serif" font-size="14" lengthAdjust="spacing" textLength="51" x="1512.5" y="64.7285">Class25</text><line style="stroke:#181818;stroke-width:0.5;" x1="1484.5" x2="1565.5" y1="75" y2="75"/><line style="stroke:#181818;stroke-width:0.5;" x1="1484.5" x2="1565.5" y1="83" y2="83"/></g><!--class Class26--><g id="elem_Class26"><rect fill="#F1F1F1" height="48" id="Class26" rx="2.5" ry="2.5" style="stroke:#181818;stroke-width:0.5;" width="83" x="1483.5" y="151"/><ellipse cx="1498.5" cy="167" fill="#ADD1B2" rx="11" ry="11" style="stroke:#181818;stroke-width:1.0;"/><path d="M1501.2656,162.875 Q1501.4219,162.6563 1501.6094,162.5469 Q1501.7969,162.4375 1502.0156,162.4375 Q1502.3906,162.4375 1502.625,162.7031 Q1502.8594,162.9531 1502.8594,163.5625 L1502.8594,165.0156 Q1502.8594,165.625 1502.625,165.8906 Q1502.3906,166.1563 1502.0156,166.1563 Q1501.6719,166.1563 1501.4688,165.9531 Q1501.2656,165.7656 1501.1563,165.25 Q1501.1094,164.8906 1500.9219,164.7031 Q1500.5938,164.3281 1499.9844,164.1094 Q1499.375,163.8906 1498.75,163.8906 Q1497.9844,163.8906 1497.3438,164.2188 Q1496.7188,164.5469 1496.2188,165.2969 Q1495.7344,166.0469 1495.7344,167.0781 L1495.7344,168.1719 Q1495.7344,169.4063 1496.625,170.2344 Q1497.5156,171.0469 1499.1094,171.0469 Q1500.0469,171.0469 1500.7031,170.7969 Q1501.0938,170.6406 1501.5156,170.2031 Q1501.7813,169.9375 1501.9219,169.8594 Q1502.0781,169.7813 1502.2813,169.7813 Q1502.6094,169.7813 1502.8594,170.0469 Q1503.125,170.2969 1503.125,170.6406 Q1503.125,170.9844 1502.7813,171.3906 Q1502.2813,171.9688 1501.4844,172.2969 Q1500.4063,172.75 1499.1094,172.75 Q1497.5938,172.75 1496.3906,172.125 Q1495.4063,171.625 1494.7188,170.5625 Q1494.0313,169.4844 1494.0313,168.2031 L1494.0313,167.0469 Q1494.0313,165.7188 1494.6406,164.5781 Q1495.2656,163.4219 1496.3594,162.8125 Q1497.4531,162.1875 1498.6875,162.1875 Q1499.4219,162.1875 1500.0625,162.3594 Q1500.7188,162.5156 1501.2656,162.875 Z " fill="#000000"/><text fill="#000000" font-family="sans-serif" font-size="14" lengthAdjust="spacing" textLength="51" x="1512.5" y="172.7285">Class26</text><line style="stroke:#181818;stroke-width:0.5;" x1="1484.5" x2="1565.5" y1="183" y2="183"/><line style="stroke:#181818;stroke-width:0.5;" x1="1484.5" x2="1565.5" y1="191" y2="191"/></g><!--class Class27--><g id="elem_Class27"><rect fill="#F1F1F1" height="48" id="Class27" rx="2.5" ry="2.5" style="stroke:#181818;stroke-width:0.5;" width="83" x="1365.5" y="43"/><ellipse cx="1380.5" cy="59" fill="#ADD1B2" rx="11" ry="11" style="stroke:#181818;stroke-width:1.0;"/><path d="M1383.2656,54.875 Q1383.4219,54.6563 1383.6094,54.5469 Q1383.7969,54.4375 1384.0156,54.4375 Q1384.3906,54.4375 1384.625,54.7031 Q1384.8594,54.9531 1384.8594,55.5625 L1384.8594,57.0156 Q1384.8594,57.625 1384.625,57.8906 Q1384.3906,58.1563 1384.0156,58.1563 Q1383.6719,58.1563 1383.4688,57.9531 Q1383.2656,57.7656 1383.1563,57.25 Q1383.1094,56.8906 1382.9219,56.7031 Q1382.5938,56.3281 1381.9844,56.1094 Q1381.375,55.8906 1380.75,55.8906 Q1379.9844,55.8906 1379.3438,56.2188 Q1378.7188,56.5469 1378.2188,57.2969 Q1377.7344,58.0469 1377.7344,59.0781 L1377.7344,60.1719 Q1377.7344,61.4063 1378.625,62.2344 Q1379.5156,63.0469 1381.1094,63.0469 Q1382.0469,63.0469 1382.7031,62.7969 Q1383.0938,62.6406 1383.5156,62.2031 Q1383.7813,61.9375 1383.9219,61.8594 Q1384.0781,61.7813 1384.2813,61.7813 Q1384.6094,61.7813 1384.8594,62.0469 Q1385.125,62.2969 1385.125,62.6406 Q1385.125,62.9844 1384.7813,63.3906 Q1384.2813,63.9688 1383.4844,64.2969 Q1382.4063,64.75 1381.1094,64.75 Q1379.5938,64.75 1378.3906,64.125 Q1377.4063,63.625 1376.7188,62.5625 Q1376.0313,61.4844 1376.0313,60.2031 L1376.0313,59.0469 Q1376.0313,57.7188 1376.6406,56.5781 Q1377.2656,55.4219 1378.3594,54.8125 Q1379.4531,54.1875 1380.6875,54.1875 Q1381.4219,54.1875 1382.0625,54.3594 Q1382.7188,54.5156 1383.2656,54.875 Z " fill="#000000"/><text fill="#000000" font-family="sans-serif" font-size="14" lengthAdjust="spacing" textLength="51" x="1394.5" y="64.7285">Class27</text><line style="stroke:#181818;stroke-width:0.5;" x1="1366.5" x2="1447.5" y1="75" y2="75"/><line style="stroke:#181818;stroke-width:0.5;" x1="1366.5" x2="1447.5" y1="83" y2="83"/></g><!--class Class28--><g id="elem_Class28"><rect fill="#F1F1F1" height="48" id="Class28" rx="2.5" ry="2.5" style="stroke:#181818;stroke-width:0.5;" width="83" x="1365.5" y="151"/><ellipse cx="1380.5" cy="167" fill="#ADD1B2" rx="11" ry="11" style="stroke:#181818;stroke-width:1.0;"/><path d="M1383.2656,162.875 Q1383.4219,162.6563 1383.6094,162.5469 Q1383.7969,162.4375 1384.0156,162.4375 Q1384.3906,162.4375 1384.625,162.7031 Q1384.8594,162.9531 1384.8594,163.5625 L1384.8594,165.0156 Q1384.8594,165.625 1384.625,165.8906 Q1384.3906,166.1563 1384.0156,166.1563 Q1383.6719,166.1563 1383.4688,165.9531 Q1383.2656,165.7656 1383.1563,165.25 Q1383.1094,164.8906 1382.9219,164.7031 Q1382.5938,164.3281 1381.9844,164.1094 Q1381.375,163.8906 1380.75,163.8906 Q1379.9844,163.8906 1379.3438,164.2188 Q1378.7188,164.5469 1378.2188,165.2969 Q1377.7344,166.0469 1377.7344,167.0781 L1377.7344,168.1719 Q1377.7344,169.4063 1378.625,170.2344 Q1379.5156,171.0469 1381.1094,171.0469 Q1382.0469,171.0469 1382.7031,170.7969 Q1383.0938,170.6406 1383.5156,170.2031 Q1383.7813,169.9375 1383.9219,169.8594 Q1384.0781,169.7813 1384.2813,169.7813 Q1384.6094,169.7813 1384.8594,170.0469 Q1385.125,170.2969 1385.125,170.6406 Q1385.125,170.9844 1384.7813,171.3906 Q1384.2813,171.9688 1383.4844,172.2969 Q1382.4063,172.75 1381.1094,172.75 Q1379.5938,172.75 1378.3906,172.125 Q1377.4063,171.625 1376.7188,170.5625 Q1376.0313,169.4844 1376.0313,168.2031 L1376.0313,167.0469 Q1376.0313,165.7188 1376.6406,164.5781 Q1377.2656,163.4219 1378.3594,162.8125 Q1379.4531,162.1875 1380.6875,162.1875 Q1381.4219,162.1875 1382.0625,162.3594 Q1382.7188,162.5156 1383.2656,162.875 Z " fill="#000000"/><text fill="#000000" font-family="sans-serif" font-size="14" lengthAdjust="spacing" textLength="51" x="1394.5" y="172.7285">Class28</text><line style="stroke:#181818;stroke-width:0.5;" x1="1366.5" x2="1447.5" y1="183" y2="183"/><line style="stroke:#181818;stroke-width:0.5;" x1="1366.5" x2="1447.5" y1="191" y2="191"/></g><!--class Class29--><g id="elem_Class29"><rect fill="#F1F1F1" height="48" id="Class29" rx="2.5" ry="2.5" style="stroke:#181818;stroke-width:0.5;" width="83" x="1247.5" y="43"/><ellipse cx="1262.5" cy="59" fill="#ADD1B2" rx="11" ry="11" style="stroke:#181818;stroke-width:1.0;"/><path d="M1265.2656,54.875 Q1265.4219,54.6563 1265.6094,54.5469 Q1265.7969,54.4375 1266.0156,54.4375 Q1266.3906,54.4375 1266.625,54.7031 Q1266.8594,54.9531 1266.8594,55.5625 L1266.8594,57.0156 Q1266.8594,57.625 1266.625,57.8906 Q1266.3906,58.1563 1266.0156,58.1563 Q1265.6719,58.1563 1265.4688,57.9531 Q1265.2656,57.7656 1265.1563,57.25 Q1265.1094,56.8906 1264.9219,56.7031 Q1264.5938,56.3281 1263.9844,56.1094 Q1263.375,55.8906 1262.75,55.8906 Q1261.9844,55.8906 1261.3438,56.2188 Q1260.7188,56.5469 1260.2188,57.2969 Q1259.7344,58.0469 1259.7344,59.0781 L1259.7344,60.1719 Q1259.7344,61.4063 1260.625,62.2344 Q1261.5156,63.0469 1263.1094,63.0469 Q1264.0469,63.0469 1264.7031,62.7969 Q1265.0938,62.6406 1265.5156,62.2031 Q1265.7813,61.9375 1265.9219,61.8594 Q1266.0781,61.7813 1266.2813,61.7813 Q1266.6094,61.7813 1266.8594,62.0469 Q1267.125,62.2969 1267.125,62.6406 Q1267.125,62.9844 1266.7813,63.3906 Q1266.2813,63.9688 1265.4844,64.2969 Q1264.4063,64.75 1263.1094,64.75 Q1261.5938,64.75 1260.3906,64.125 Q1259.4063,63.625 1258.7188,62.5625 Q1258.0313,61.4844 1258.0313,60.2031 L1258.0313,59.0469 Q1258.0313,57.7188 1258.6406,56.5781 Q1259.2656,55.4219 1260.3594,54.8125 Q1261.4531,54.1875 1262.6875,54.1875 Q1263.4219,54.1875 1264.0625,54.3594 Q1264.7188,54.5156 1265.2656,54.875 Z " fill="#000000"/><text fill="#000000" font-family="sans-serif" font-size="14" lengthAdjust="spacing" textLength="51" x="1276.5" y="64.7285">Class29</text><line style="stroke:#181818;stroke-width:0.5;" x1="1248.5" x2="1329.5" y1="75" y2="75"/><line style="stroke:#181818;stroke-width:0.5;" x1="1248.5" x2="1329.5" y1="83" y2="83"/></g><!--class Class30--><g id="elem_Class30"><rect fill="#F1F1F1" height="48" id="Class30" rx="2.5" ry="2.5" style="stroke:#181818;stroke-width:0.5;" width="83" x="1247.5" y="151"/><ellipse cx="1262.5" cy="167" fill="#ADD1B2" rx="11" ry="11" style="stroke:#181818;stroke-width:1.0;"/><path d="M1265.2656,162.875 Q1265.4219,162.6563 1265.6094,162.5469 Q1265.7969,162.4375 1266.0156,162.4375 Q1266.3906,162.4375 1266.625,162.7031 Q1266.8594,162.9531 1266.8594,163.5625 L1266.8594,165.0156 Q1266.8594,165.625 1266.625,165.8906 Q1266.3906,166.1563 1266.0156,166.1563 Q1265.6719,166.1563 1265.4688,165.9531 Q1265.2656,165.7656 1265.1563,165.25 Q1265.1094,164.8906 1264.9219,164.7031 Q1264.5938,164.3281 1263.9844,164.1094 Q1263.375,163.8906 1262.75,163.8906 Q1261.9844,163.8906 1261.3438,164.2188 Q1260.7188,164.5469 1260.2188,165.2969 Q1259.7344,166.0469 1259.7344,167.0781 L1259.7344,168.1719 Q1259.7344,169.4063 1260.625,170.2344 Q1261.5156,171.0469 1263.1094,171.0469 Q1264.0469,171.0469 1264.7031,170.7969 Q1265.0938,170.6406 1265.5156,170.2031 Q1265.7813,169.9375 1265.9219,169.8594 Q1266.0781,169.7813 1266.2813,169.7813 Q1266.6094,169.7813 1266.8594,170.0469 Q1267.125,170.2969 1267.125,170.6406 Q1267.125,170.9844 1266.7813,171.3906 Q1266.2813,171.9688 1265.4844,172.2969 Q1264.4063,172.75 1263.1094,172.75 Q1261.5938,172.75 1260.3906,172.125 Q1259.4063,171.625 1258.7188,170.5625 Q1258.0313,169.4844 1258.0313,168.2031 L1258.0313,167.0469 Q1258.0313,165.7188 1258.6406,164.5781 Q1259.2656,163.4219 1260.3594,162.8125 Q1261.4531,162.1875 1262.6875,162.1875 Q1263.4219,162.1875 1264.0625,162.3594 Q1264.7188,162.5156 1265.2656,162.875 Z " fill="#000000"/><text fill="#000000" font-family="sans-serif" font-size="14" lengthAdjust="spacing" textLength="51" x="1276.5" y="172.7285">Class30</text><line style="stroke:#181818;stroke-width:0.5;" x1="1248.5" x2="1329.5" y1="183" y2="183"/><line style="stroke:#181818;stroke-width:0.5;" x1="1248.5" x2="1329.5" y1="191" y2="191"/></g><!--reverse link Class01 to Class02--><g id="link_Class01_Class02"><path codeLine="4" d="M537,109 C537,126.66 537,132.94 537,150.68 " fill="none" id="Class01-backto-Class02" style="stroke:#181818;stroke-width:1.0;"/><polygon fill="none" points="537,91,531,109,543,109,537,91" style="stroke:#181818;stroke-width:1.0;"/></g><!--reverse link Class03 to Class04--><g id="link_Class03_Class04"><path codeLine="5" d="M419,103 C419,120.66 419,132.94 419,150.68 " fill="none" id="Class03-backto-Class04" style="stroke:#181818;stroke-width:1.0;"/><polygon fill="#181818" points="419,91,415,97,419,103,423,97,419,91" style="stroke:#181818;stroke-width:1.0;"/></g><!--reverse link Class05 to Class06--><g id="link_Class05_Class06"><path codeLine="6" d="M301,103 C301,120.66 301,132.94 301,150.68 " fill="none" id="Class05-backto-Class06" style="stroke:#181818;stroke-width:1.0;"/><polygon fill="none" points="301,91,297,97,301,103,305,97,301,91" style="stroke:#181818;stroke-width:1.0;"/></g><!--link Class07 to Class08--><g id="link_Class07_Class08"><path codeLine="7" d="M183,91 C183,108.66 183,132.94 183,150.68 " fill="none" id="Class07-Class08" style="stroke:#181818;stroke-width:1.0;stroke-dasharray:7.0,7.0;"/></g><!--link Class09 to Class10--><g id="link_Class09_Class10"><path codeLine="8" d="M65,91 C65,108.66 65,132.94 65,150.68 " fill="none" id="Class09-Class10" style="stroke:#181818;stroke-width:1.0;"/></g><!--reverse link Class11 to Class12--><g id="link_Class11_Class12"><path codeLine="13" d="M1149,109 C1149,126.66 1149,132.94 1149,150.68 " fill="none" id="Class11-backto-Class12" style="stroke:#181818;stroke-width:1.0;stroke-dasharray:7.0,7.0;"/><polygon fill="none" points="1149,91,1143,109,1155,109,1149,91" style="stroke:#181818;stroke-width:1.0;"/></g><!--link Class13 to Class14--><g id="link_Class13_Class14"><path codeLine="14" d="M1031,91 C1031,108.66 1031,126.94 1031,144.68 " fill="none" id="Class13-to-Class14" style="stroke:#181818;stroke-width:1.0;"/><polygon fill="#181818" points="1031,150.68,1035,141.68,1031,145.68,1027,141.68,1031,150.68" style="stroke:#181818;stroke-width:1.0;"/></g><!--link Class15 to Class16--><g id="link_Class15_Class16"><path codeLine="15" d="M913,91 C913,108.66 913,126.94 913,144.68 " fill="none" id="Class15-to-Class16" style="stroke:#181818;stroke-width:1.0;stroke-dasharray:7.0,7.0;"/><polygon fill="#181818" points="913,150.68,917,141.68,913,145.68,909,141.68,913,150.68" style="stroke:#181818;stroke-width:1.0;"/></g><!--link Class17 to Class18--><g id="link_Class17_Class18"><path codeLine="16" d="M795,91 C795,108.66 795,114.94 795,132.68 " fill="none" id="Class17-to-Class18" style="stroke:#181818;stroke-width:1.0;stroke-dasharray:7.0,7.0;"/><polygon fill="none" points="795,150.68,801,132.68,789,132.68,795,150.68" style="stroke:#181818;stroke-width:1.0;"/></g><!--link Class19 to Class20--><g id="link_Class19_Class20"><path codeLine="17" d="M677,97 C677,114.66 677,120.94 677,138.68 " fill="none" id="Class19-Class20" style="stroke:#181818;stroke-width:1.0;"/><polygon fill="#181818" points="677,91,673,100,677,96,681,100,677,91" style="stroke:#181818;stroke-width:1.0;"/><polygon fill="#181818" points="677,150.68,681,144.68,677,138.68,673,144.68,677,150.68" style="stroke:#181818;stroke-width:1.0;"/></g><!--reverse link Class21 to Class22--><g id="link_Class21_Class22"><path codeLine="22" d="M1761,96 C1761,113.66 1761,132.94 1761,150.68 " fill="none" id="Class21-backto-Class22" style="stroke:#181818;stroke-width:1.0;"/><rect fill="#FFFFFF" height="10" style="stroke:#181818;stroke-width:1.5;" width="10" x="1756" y="86"/></g><!--reverse link Class23 to Class24--><g id="link_Class23_Class24"><path codeLine="23" d="M1643,99 C1643,116.66 1643,132.94 1643,150.68 " fill="none" id="Class23-backto-Class24" style="stroke:#181818;stroke-width:1.0;"/><path d="M1639,96 L1647,104 M1647,96 L1639,104 " fill="none" style="stroke:#181818;stroke-width:1.0;"/></g><!--reverse link Class25 to Class26--><g id="link_Class25_Class26"><path codeLine="24" d="M1525,99 C1525,116.66 1525,132.94 1525,150.68 " fill="none" id="Class25-backto-Class26" style="stroke:#181818;stroke-width:1.0;"/><line style="stroke:#181818;stroke-width:1.0;" x1="1525" x2="1517" y1="99" y2="91"/><line style="stroke:#181818;stroke-width:1.0;" x1="1525" x2="1533" y1="99" y2="91"/><line style="stroke:#181818;stroke-width:1.0;" x1="1525" x2="1525" y1="99" y2="91"/></g><!--reverse link Class27 to Class28--><g id="link_Class27_Class28"><path codeLine="25" d="M1407,107 C1407,124.66 1407,132.94 1407,150.68 " fill="none" id="Class27-backto-Class28" style="stroke:#181818;stroke-width:1.0;"/><ellipse cx="1407" cy="99" fill="#FFFFFF" rx="8" ry="8" style="stroke:#181818;stroke-width:1.0;"/><line style="stroke:#181818;stroke-width:1.0;" x1="1407" x2="1407" y1="107" y2="91"/><line style="stroke:#181818;stroke-width:1.0;" x1="1399" x2="1415" y1="99" y2="99"/></g><!--reverse link Class29 to Class30--><g id="link_Class29_Class30"><path codeLine="26" d="M1289,109 C1289,126.66 1289,132.94 1289,150.68 " fill="none" id="Class29-backto-Class30" style="stroke:#181818;stroke-width:1.0;"/><polygon fill="none" points="1289,91,1283,109,1295,109,1289,91" style="stroke:#181818;stroke-width:1.0;"/></g><!--SRC=[NS_12e904CRn-px51zsC5MSsCq6wz01TEWSIInr4GOE2zDrJ_7Q3ZljZXlzixs_Fkhqt7kVMusFCgQc78HDKexLO7qfqIABjQ3cwQ7jQWJGb7KWbmfHaPZAcZzdBgujPMR9XLvWLD-yUQSnAFYU2CIjBTWp8i9Ieh4rMrF_qe_U_FwjW4uvKjjNX7OrjpJ55OriBRACnhIMkmTnS_W80]--></g></svg>